# xmcd
# Track frame offsets:
# 150
# 16069
# 30333
# 47330
# 61095
# 77322
# 89156
# 105792
# 123379
# 138244
# 153077
# 166667
# 183054
# 197059
# 211795
# 227792
# 242809
# 257604
#
# Disc length: 3649 seconds
# Revision: 0
# Processed by: cddbd v1.5.2PL0 Copyright (c) Steve Scherf et al.
# Submitted via: VisiTrax 2.11.2.271 - For more info visit www.synapsa.com
#
DISCID=c70e3f12
DTITLE=Various Artist - Promo Only County Radio December 2013
DYEAR=2013
DGENRE=
TTITLE0=Erica Nicole - Daughter Of The Revolution
TTITLE1=The Lacs - She's Running @
TTITLE2=Joel Crouse - Oh Juliet
TTITLE3=Katie Armiger - So Long
TTITLE4=Dan and Shay - 19 You and Me @
TTITLE5=Glen Templeton - Ball Cap
TTITLE6=Jerrod Niemann - Drink To That All Night @
TTITLE7=Kenny Rogers Duet With Dolly Parton - You Can't Make Old Freinds
TTITLE8=Florida Georgia Line - Stay
TTITLE9=Ashley Monroe - Weed Instead Of Roses @
TTITLE10=Lady Antebellum - Compass
TTITLE11=Rodney Atkins - Doin' It Right
TTITLE12=Rachel Farley - Midnight Road
TTITLE13=Weston Burt - Smile That Smile
TTITLE14=Blackjack Billy - Get Some
TTITLE15=Justin Moore - Lettin' The Night Roll @
TTITLE16=Kacey Musgraves - Follow your Arrow @
TTITLE17=Chris Carmack - What If I Was Willing
EXTD=
EXTT0=
EXTT1=
EXTT2=
EXTT3=
EXTT4=
EXTT5=
EXTT6=
EXTT7=
EXTT8=
EXTT9=
EXTT10=
EXTT11=
EXTT12=
EXTT13=
EXTT14=
EXTT15=
EXTT16=
EXTT17=
PLAYORDER=
